<svg width="73" height="81" viewBox="0 0 73 81" fill="none" xmlns="http://www.w3.org/2000/svg">
<g id="Layer_1" clip-path="url(#clip0_427_1003)">
<path id="Vector" d="M7.66387 29.9449C8.20465 27.3677 8.7308 26.9487 11.3177 26.9487H18.6937C18.9471 26.9487 19.1809 26.9487 19.444 26.9487C20.2089 26.9487 20.7642 27.2703 20.7642 28.1131C20.7642 28.9559 20.2137 29.2434 19.444 29.2434H10.2703V65.5091H14.4551C15.7462 65.5091 17.0373 65.5091 18.3283 65.5091C19.1906 65.5091 20.014 65.7235 19.9604 66.7709C19.9117 67.6819 19.1808 67.9207 18.3331 67.9158C15.6731 67.9158 13.0181 67.9158 10.1973 67.9158C10.1973 69.4163 10.1973 70.8389 10.1973 72.2127C10.1973 73.1287 10.928 72.9533 11.4785 72.9533C16.3179 72.9533 21.1523 72.9533 25.9819 72.9533H35.0923C35.219 70.7512 32.403 67.9548 29.6163 67.9207C27.8657 67.9012 26.1152 67.9012 24.3646 67.9207C23.4974 67.9207 22.7081 67.7794 22.7032 66.7076C22.7032 65.7332 23.4536 65.514 24.272 65.514C25.9382 65.514 27.6042 65.4653 29.2704 65.514C31.3507 65.5871 32.0862 65.9232 35.3844 67.9499C35.3844 67.5456 35.4429 67.1948 35.4429 66.844C35.4429 62.4269 35.4429 58.0098 35.4429 53.5927C35.4429 52.7548 35.443 51.8924 36.5781 51.9021C37.7132 51.9119 37.7425 52.7353 37.7425 53.5878C37.7425 57.966 37.7425 62.3424 37.7425 66.7173V68.2276C40.2564 65.665 43.1795 65.4166 46.239 65.4556C51.2813 65.5238 56.3235 65.4556 61.3658 65.4556H62.9882V49.4857C62.9882 49.1545 62.8664 48.7257 63.0272 48.5114C63.3341 48.0924 63.7677 47.576 64.2061 47.5078C64.5131 47.4591 64.9904 48.0632 65.2535 48.4822C65.4094 48.7209 65.312 49.135 65.312 49.4565C65.312 56.8325 65.312 64.2083 65.312 71.5843C65.312 74.254 64.1916 75.3697 61.5316 75.3697H11.6296C8.90625 75.3697 7.77592 74.2394 7.77592 71.4966C7.77592 58.9111 7.77592 46.3272 7.77592 33.745V32.1324C6.20719 32.1324 4.76031 32.0934 3.31826 32.1665C3.05031 32.1665 2.71426 32.5806 2.57297 32.8778C2.49936 33.1974 2.48763 33.5281 2.53872 33.8521V72.3394C2.53872 76.3928 4.45821 78.3074 8.50669 78.3074H64.5325C68.4982 78.3074 70.4324 76.3587 70.4324 72.4028C70.4324 59.4827 70.4322 46.5821 70.4615 33.6475C70.4615 32.3467 70.0963 31.957 68.8394 32.0788C67.7335 32.186 66.6079 32.0788 65.312 32.0788V33.6377C65.312 36.8044 65.312 39.9711 65.312 43.1378C65.312 43.9855 65.0977 44.7162 64.1234 44.6773C63.149 44.6383 62.9688 43.9465 62.9737 43.0793C62.998 38.9577 62.9737 34.8314 62.9737 30.7049V29.1995C62.4621 29.1995 61.9991 29.1362 61.5802 29.1313C58.9932 29.1313 56.4113 29.1313 53.8293 29.1313C53.0011 29.1313 52.3677 28.8926 52.3677 28.0108C52.3677 27.129 52.9619 26.8123 53.8048 26.8172C56.8058 26.8172 59.8068 26.8172 62.8079 26.8172C64.3766 26.8172 64.9856 27.5382 65.4776 29.8036C66.9392 29.8036 68.4252 29.8036 69.916 29.8036C71.6699 29.8036 72.7318 30.8267 72.7318 32.5855C72.7318 46.2265 72.7318 59.8529 72.7318 73.4648C72.7261 74.4057 72.5342 75.3363 72.1671 76.2027C71.7999 77.0691 71.2649 77.8542 70.5928 78.5127C69.9206 79.1713 69.1245 79.6903 68.2508 80.0396C67.3771 80.389 66.443 80.5619 65.5021 80.5484C46.1708 80.5679 26.8361 80.5679 7.49831 80.5484C6.54741 80.5588 5.60403 80.3796 4.72318 80.0212C3.84234 79.6628 3.04172 79.1325 2.36816 78.4612C1.6946 77.7899 1.16162 76.9911 0.800283 76.1115C0.438945 75.2319 0.256445 74.289 0.263622 73.3381C0.234392 59.7945 0.234392 46.2525 0.263622 32.7121C0.263622 30.8024 1.29157 29.8183 3.18671 29.789C4.6921 29.9157 6.18772 29.9449 7.66387 29.9449ZM62.9882 68.0424C62.7805 68.0017 62.5706 67.9724 62.3597 67.9548C56.0799 67.9548 49.8002 67.9158 43.5204 67.9548C41.4792 67.9548 39.8862 69.0461 38.7852 70.7561C38.4082 71.4692 38.0826 72.2084 37.8108 72.9679H47.7248C52.3822 72.9679 57.0397 72.9679 61.6972 72.9679C62.6375 72.9679 63.0858 72.734 63.0224 71.7109C62.9347 70.5368 62.9882 69.3335 62.9882 68.023V68.0424Z" fill="black"/>
<path id="Vector_2" d="M32.973 39.9565C32.7197 35.8544 32.4859 31.7572 32.2082 27.5431C30.6346 27.5431 29.0025 27.5723 28.1402 26.0815C27.7114 25.2429 27.5019 24.3094 27.5312 23.368C27.5312 21.8333 29.0902 20.4936 30.7077 20.4156C32.861 20.3133 33.8839 21.541 34.5513 25.0633H38.4488C38.5365 24.5323 38.6389 23.9721 38.7169 23.4118C38.8298 22.5544 39.2642 21.7719 39.9322 21.2228C40.6003 20.6736 41.452 20.3988 42.3151 20.4539C43.1781 20.509 43.9881 20.8899 44.5809 21.5196C45.1737 22.1492 45.5052 22.9806 45.5082 23.8454C45.5325 25.8282 44.3193 27.2557 42.4778 27.4457C41.9468 27.4944 41.411 27.509 40.7776 27.548C40.5194 31.7572 40.266 35.8934 40.0126 40.0344L40.3197 40.127C40.4415 39.7616 40.5682 39.3962 40.6851 39.0308C40.9531 38.1832 41.0553 37.238 41.5084 36.5072C43.8079 32.7949 46.2096 29.146 48.548 25.458C51.5588 20.7177 51.9244 15.7631 49.3326 10.7792C46.7408 5.79537 42.4098 3.23279 36.8364 2.98433C29.6944 2.65305 23.2439 8.27997 22.25 15.5682C22.1282 16.4549 21.8896 17.2197 20.8665 17.0931C19.8434 16.9664 19.8922 16.1577 19.9604 15.349C20.3843 9.01564 25.8065 2.83818 32.3055 1.22074C34.9631 0.52733 37.7501 0.495752 40.4227 1.1288C43.0954 1.76184 45.5723 3.04023 47.6365 4.85206C49.7007 6.66389 51.2892 8.95392 52.2635 11.5219C53.2378 14.0899 53.568 16.8575 53.225 19.5826C52.9109 22.1518 51.9946 24.6106 50.5505 26.7587C48.1698 30.4191 45.8134 34.0957 43.4814 37.7885C43.1745 38.2757 43.1891 38.9578 42.9942 39.518C42.697 40.3073 42.5071 41.2572 41.9468 41.798C41.7011 42.0033 41.5107 42.267 41.3933 42.5649C41.2758 42.8628 41.2351 43.1854 41.2746 43.5031C41.4159 45.3203 40.8994 46.9134 39.1553 47.6393C37.2602 48.4188 35.2578 48.4773 33.4212 47.3032C32.1789 46.4993 31.8475 45.1985 31.9011 43.8052C31.9554 43.4007 31.9052 42.989 31.755 42.6094C31.6049 42.2299 31.3601 41.8952 31.0438 41.6373C30.5566 41.2329 30.4348 40.4242 30.1912 39.7763C29.8697 38.9091 29.7429 37.925 29.2704 37.1552C27.0586 33.5842 24.6859 30.1105 22.5131 26.5151C21.661 24.9526 20.9376 23.3233 20.3501 21.6433C20.048 20.8785 20.1601 20.0843 21.1394 19.87C22.0114 19.6849 22.2794 20.2939 22.6009 21.0149C23.4555 23.0323 24.4317 24.9959 25.524 26.8952C27.4289 30.0667 29.475 33.1506 31.5115 36.2442C32.1448 37.2186 32.6952 38.1393 32.5101 39.3475C32.5243 39.571 32.5822 39.7895 32.6806 39.9906L32.973 39.9565ZM37.684 40.127C37.9276 35.8593 38.1713 31.7377 38.3905 27.6113H34.5856C34.8389 31.8595 35.0727 35.986 35.3211 40.127H37.684ZM34.2397 42.5629C34.2397 43.2742 34.0985 43.8588 34.2787 44.3216C34.459 44.7845 34.8924 45.4909 35.3406 45.6175C36.1503 45.7913 36.9863 45.8045 37.801 45.6565C38.6926 45.5347 39.092 44.5116 38.9507 43.2206C38.8435 42.2462 38.1322 42.5873 37.6352 42.5678C36.5634 42.5239 35.5015 42.5532 34.2397 42.5532V42.5629ZM32.0181 25.1121C31.984 24.0695 32.2909 22.8905 30.8245 22.9197C30.5687 23.0165 30.342 23.177 30.1655 23.3858C29.9891 23.5947 29.8688 23.8451 29.8161 24.1134C29.9574 25.3703 30.9853 25.2047 32.0181 25.1024V25.1121ZM40.9775 25.1121C42.0152 25.2144 43.0381 25.3751 43.1745 24.1377C43.1236 23.8687 43.0039 23.6174 42.8272 23.4083C42.6505 23.1992 42.4229 23.0393 42.1662 22.9441C40.6997 22.8857 41.0116 24.0598 40.9775 25.1024V25.1121Z" fill="#F05E28"/>
<path id="Vector_3" d="M21.9966 57.456C19.9553 57.456 17.9141 57.456 15.8729 57.456C15.0446 57.456 14.4551 57.2027 14.4746 56.277C14.4746 55.4245 15.0496 55.1614 15.8193 55.1614H28.3155C29.1388 55.1614 29.7429 55.439 29.7185 56.3549C29.6941 57.2708 29.0462 57.4657 28.257 57.4609C26.1621 57.4462 24.0769 57.456 21.9966 57.456Z" fill="#DC9C1A"/>
<path id="Vector_4" d="M51.1301 57.456C49.0547 57.456 46.9793 57.456 44.899 57.456C44.0903 57.456 43.4375 57.2465 43.4375 56.3306C43.4375 55.4147 44.0368 55.1565 44.8553 55.1565H57.1906C58.0383 55.1565 58.7399 55.3855 58.7204 56.3598C58.7204 57.2562 58.0382 57.4657 57.2344 57.456C55.2028 57.4414 53.1665 57.456 51.1301 57.456Z" fill="#DC9C1A"/>
<path id="Vector_5" d="M21.7436 50.0508C19.9556 50.0508 18.1677 50.0508 16.3846 50.0508C15.5369 50.0508 14.7965 49.8121 14.8062 48.8767C14.816 47.9413 15.5128 47.6685 16.3751 47.6734C19.9477 47.6734 23.5204 47.6734 27.0931 47.6734C27.9554 47.6734 28.6618 47.9901 28.6764 48.8718C28.691 49.7536 27.9503 50.0557 27.1026 50.0508C25.3195 50.0411 23.5315 50.0508 21.7436 50.0508Z" fill="#DC9C1A"/>
<path id="Vector_6" d="M51.4811 47.6831H56.728C57.5513 47.6831 58.2772 47.8682 58.3113 48.8572C58.3454 49.8461 57.61 50.0557 56.7818 50.0557H46.0393C45.2111 50.0557 44.4851 49.8559 44.5192 48.8426C44.5533 47.8293 45.2891 47.6831 46.1076 47.6831H51.4811Z" fill="#DC9C1A"/>
<path id="Vector_7" d="M17.2617 8.50905C17.057 8.79161 16.8866 9.25933 16.5796 9.39087C16.3824 9.4716 16.1698 9.5082 15.9569 9.4981C15.744 9.488 15.5357 9.43139 15.3469 9.33235C14.3826 8.62573 13.4856 7.8315 12.6674 6.95979C12.5361 6.75586 12.4588 6.52198 12.4427 6.27998C12.4265 6.03798 12.4719 5.7958 12.5749 5.57621C12.7941 5.26441 13.6516 5.00624 13.8952 5.18162C14.9736 6.00472 16.005 6.88788 16.984 7.82698C17.1205 7.93416 17.1399 8.18264 17.2617 8.50905Z" fill="#DC9C1A"/>
<path id="Vector_8" d="M16.2576 14.6279C16.4428 14.7838 16.9006 14.9738 17.0029 15.2856C17.072 15.4895 17.0951 15.7062 17.0707 15.9201C17.0463 16.134 16.9751 16.3399 16.8618 16.523C15.9927 17.4158 15.0471 18.2308 14.0361 18.9589C13.8219 19.0419 13.5911 19.0732 13.3626 19.0504C13.1341 19.0275 12.9143 18.9512 12.7208 18.8274C12.4529 18.6374 12.2335 17.8531 12.3992 17.6728C13.432 16.6205 14.5719 15.6607 15.6827 14.6815C15.7606 14.6231 15.9263 14.6572 16.2576 14.6279Z" fill="#DC9C1A"/>
<path id="Vector_9" d="M60.9569 6.1411C60.822 6.47298 60.6416 6.78451 60.421 7.06676C59.6366 7.80727 58.8181 8.52826 57.9851 9.21518C57.3907 9.70236 56.6649 9.82416 56.2947 9.09339C56.1951 8.83279 56.1594 8.55216 56.1907 8.27496C56.2221 7.99776 56.3195 7.73213 56.4748 7.50036C57.225 6.66436 58.0705 5.91877 58.9937 5.27878C59.1841 5.17785 59.3938 5.11869 59.6088 5.10525C59.8239 5.09181 60.0392 5.12437 60.2407 5.20082C60.5524 5.32261 60.7133 5.7952 60.9569 6.1411Z" fill="#DC9C1A"/>
<path id="Vector_10" d="M60.8833 18.1259C60.7128 18.3793 60.5616 18.8616 60.2596 18.9883C60.0606 19.0697 59.8461 19.1063 59.6314 19.0954C59.4166 19.0844 59.207 19.0262 59.0174 18.9249C58.046 18.2161 57.144 17.4167 56.3234 16.5377C56.1994 16.3246 56.1296 16.0843 56.1202 15.838C56.1109 15.5916 56.1622 15.3468 56.2696 15.1249C56.445 14.8326 57.2977 14.5744 57.5218 14.7449C58.6281 15.6098 59.6898 16.5301 60.703 17.5023C60.8053 17.5949 60.7956 17.8141 60.8833 18.1259Z" fill="#DC9C1A"/>
</g>
<defs>
<clipPath id="clip0_427_1003">
<rect width="72.512" height="80" fill="white" transform="translate(0.244141 0.679932)"/>
</clipPath>
</defs>
</svg>
