<svg width="81" height="81" viewBox="0 0 81 81" fill="none" xmlns="http://www.w3.org/2000/svg">
<g id="Layer_1" clip-path="url(#clip0_427_736)">
<path id="Vector" d="M18.0009 9.08489C18.8235 9.54108 19.6159 10.0495 20.3734 10.6071C21.3459 11.4011 22.0836 11.2648 23.2205 10.7245C26.0864 9.35737 29.0838 8.2674 32.0578 7.13515C32.7719 6.86265 33.3685 6.66537 33.3121 5.76332C33.3121 5.48613 33.5047 5.20423 33.5094 4.92234C33.5094 2.51219 35.0175 1.4645 37.1223 1.04167C39.6885 0.463526 42.3614 0.568837 44.8742 1.34706C46.2836 1.81687 47.3313 2.57326 47.3595 4.21291C47.3924 6.17204 48.3932 6.966 50.2913 7.53918C53.082 8.38015 55.7176 9.76611 58.3768 11.0158C59.011 11.3165 59.4574 11.4856 60.0305 11.0158C60.3688 10.7151 60.8244 10.546 61.1532 10.2312C62.5627 8.90633 64.0569 9.07552 65.5885 9.99165C68.2233 11.4601 70.3276 13.7223 71.602 16.4562C72.1094 17.5838 72.1611 18.6268 71.259 19.5664C69.8214 21.0745 69.8496 22.4323 70.9255 24.335C72.3021 26.7546 73.0678 29.503 74.0309 32.1575C74.2987 32.8998 74.435 33.5998 75.4404 33.5105C75.7128 33.5105 75.9995 33.7032 76.2813 33.7079C78.6304 33.7079 79.6594 35.1596 80.0963 37.2315C80.724 39.8733 80.6101 42.6371 79.7673 45.2183C79.321 46.5244 78.5835 47.5345 77.0519 47.5674C74.9518 47.5674 74.1765 48.6809 73.5939 50.6682C72.7858 53.426 71.3905 56.0193 70.1361 58.6268C69.8167 59.2939 69.7367 59.7309 70.1972 60.2853C70.4884 60.6329 70.6672 61.0839 70.9819 61.4081C72.3491 62.8176 72.0813 64.3397 71.1886 65.8525C69.7064 68.5264 67.3991 70.6491 64.6112 71.9038C63.5729 72.3736 62.5673 72.3736 61.7217 71.5514C60.129 69.9869 58.7057 70.142 56.7418 71.2367C54.327 72.6085 51.5504 73.3649 48.9101 74.3139C48.2335 74.5582 47.665 74.7085 47.7167 75.5918C47.7167 75.9066 47.5053 76.2355 47.5006 76.5549C47.4724 78.8382 46.091 79.8436 44.0708 80.3134C41.4346 80.9579 38.6721 80.8669 36.084 80.0504C34.6745 79.5806 33.6599 78.7584 33.6411 77.1422C33.6176 75.2113 32.645 74.4549 30.7846 73.8864C27.9657 73.022 25.283 71.6266 22.5862 70.3675C21.9802 70.0856 21.5761 69.954 21.0311 70.3957C20.4861 70.8373 19.9553 71.0393 19.4902 71.4481C18.4378 72.3877 17.3571 72.3877 16.1497 71.791C13.1913 70.3947 10.816 68.0059 9.43624 65.0398C8.88186 63.8793 8.84897 62.7988 9.7886 61.8216C11.198 60.351 11.1651 59.0308 10.1127 57.161C8.72679 54.7038 7.94211 51.8991 6.9649 49.2212C6.7065 48.5211 6.57032 47.8493 5.62129 47.9479C5.58082 47.9542 5.5395 47.9542 5.49902 47.9479C1.59486 47.0083 1.27067 46.7217 0.664612 42.7001C0.279654 40.3892 0.534892 38.017 1.40237 35.8408C1.84399 34.7649 2.51104 33.9991 3.77484 33.9615C5.889 33.9052 6.86166 32.9374 7.43953 30.7574C8.15834 28.0278 9.59127 25.4767 10.8363 22.9115C11.1792 22.2021 11.2636 21.7417 10.775 21.1497C10.4321 20.7316 10.2161 20.2101 9.85903 19.8107C8.84893 18.6926 8.85821 17.5134 9.51125 16.2496C10.958 13.2651 13.4266 10.8982 16.4692 9.57821C16.9689 9.38182 17.4806 9.21703 18.0009 9.08489ZM14.4115 21.8873C14.1296 22.4276 13.9416 22.8786 13.6692 23.2968C11.6578 26.3074 10.2329 29.6706 9.46904 33.2098C9.13078 34.9294 8.49655 36.0569 6.55152 36.0287C5.96777 36.0356 5.39249 36.1687 4.86495 36.4187C4.39514 36.6301 3.74188 37.0248 3.69959 37.4006C3.46108 39.2402 3.35133 41.0942 3.37086 42.9491C3.39905 44.2646 4.13658 45.1573 5.63528 45.1667C6.1051 45.1667 6.60797 45.4015 7.09657 45.4297C8.42145 45.5096 9.04146 46.1814 9.29516 47.4922C9.9482 51.0568 11.3214 54.4506 13.3308 57.4664C14.3409 58.9604 14.2939 60.0315 13.251 61.4457C11.4469 63.8887 11.5549 64.4478 13.7208 66.6653C14.3993 67.3347 15.1179 67.9623 15.8726 68.5446C16.8686 69.348 17.8835 69.6017 18.9406 68.5822C19.3258 68.211 19.8519 67.9949 20.2654 67.6426C21.2614 66.8016 22.1446 66.8063 23.2815 67.5674C26.2649 69.6218 29.6366 71.0447 33.1899 71.7487C34.8671 72.0729 35.8163 72.7541 35.8445 74.5394C35.8622 75.1641 36.0042 75.7791 36.2625 76.3482C36.4739 76.8181 36.8874 77.457 37.2679 77.4993C39.1083 77.7277 40.9622 77.8297 42.8165 77.8046C44.1507 77.7765 45.0011 77.0013 45.0105 75.5214C45.0105 75.0515 45.236 74.5488 45.2736 74.0555C45.3722 72.8105 46.0112 72.2702 47.2327 71.8803C50.1784 70.9407 53.312 70.1796 55.8866 68.5916C58.5552 66.9285 60.5331 66.8439 62.7648 68.9487C62.9871 69.0901 63.2418 69.1725 63.5048 69.1881C63.7679 69.2037 64.0307 69.152 64.2683 69.0379C65.7433 67.7962 67.1546 66.4806 68.4966 65.0961C69.3376 64.2458 69.2905 63.2874 68.4496 62.3619C68.0079 61.892 67.7354 61.2343 67.3172 60.7222C66.6031 59.8437 66.6596 59.0591 67.2844 58.1288C69.3853 55.0766 70.8475 51.6312 71.5832 47.9996C71.9121 46.2895 72.6356 45.4062 74.4021 45.3686C74.9706 45.3686 75.5344 45.0304 76.1029 45.021C76.2704 45.034 76.4388 45.0121 76.5975 44.9568C76.7561 44.9015 76.9015 44.8139 77.0246 44.6996C77.1477 44.5853 77.246 44.4467 77.313 44.2926C77.3799 44.1385 77.4142 43.9722 77.4137 43.8042C77.5988 42.0376 77.6835 40.262 77.6674 38.4859C77.6251 37.1187 76.8969 36.1791 75.3183 36.1932C74.6997 36.146 74.0863 36.0439 73.4858 35.8878C73.0698 35.8532 72.6783 35.6765 72.3772 35.3873C72.076 35.0982 71.8835 34.7142 71.8321 34.2998C71.0359 30.2548 69.4385 26.4098 67.1339 22.9914C66.8979 22.6995 66.7692 22.3355 66.7692 21.9602C66.7692 21.5848 66.8979 21.2207 67.1339 20.9289C67.6601 20.1819 68.0972 19.3644 68.6751 18.6597C69.2529 17.955 69.2717 17.2972 68.7267 16.663C67.7043 15.3659 66.5845 14.1486 65.377 13.0219C63.8172 11.6877 63.6198 11.7863 61.9426 12.9092C61.512 13.1633 61.0977 13.4442 60.7022 13.7502C59.7344 14.577 58.8606 14.5394 57.7941 13.8159C54.7673 11.7555 51.3608 10.3181 47.7729 9.58756C46.1521 9.25869 45.2125 8.64794 45.1938 6.89083C45.1713 6.22337 45.0214 5.56636 44.7522 4.9552C44.5736 4.53237 44.1696 3.931 43.8125 3.89341C41.9299 3.67993 40.0364 3.57644 38.1417 3.58338C36.8356 3.58338 36.0416 4.37265 36.0181 5.79619C36.0181 6.266 35.7833 6.76869 35.7504 7.2573C35.6706 8.57278 35.0364 9.22581 33.7115 9.47951C30.1469 10.1297 26.7528 11.5015 23.7374 13.5106C22.2528 14.5113 21.1815 14.5019 19.7579 13.4495C17.282 11.6172 16.7182 11.7487 14.4443 13.9569C14.0872 14.3045 13.7255 14.6522 13.3966 15.0281C11.5644 17.1375 11.5504 17.5039 13.0867 19.8013C13.5565 20.4638 13.9652 21.1685 14.4115 21.8873Z" fill="black"/>
<path id="Vector_2" d="M68.4962 40.7504C68.4822 46.29 66.8248 51.7008 63.7338 56.2979C60.6429 60.895 56.2576 64.4716 51.1328 66.5749C46.0081 68.6782 40.3743 69.2137 34.9451 68.1134C29.5159 67.0132 24.5352 64.3267 20.6336 60.3942C16.7321 56.4617 14.0852 51.4599 13.0278 46.0222C11.9705 40.5844 12.5503 34.9552 14.694 29.8472C16.8377 24.7393 20.4489 20.3822 25.0703 17.3277C29.6916 14.2732 35.1154 12.6587 40.6549 12.6884C55.9849 12.726 68.5103 25.3499 68.4962 40.7504ZM63.5584 50.8843C67.8431 42.1081 66.3538 28.6855 55.9991 20.5812C46.2974 12.9937 31.9398 13.7642 22.9804 22.3524C14.0211 30.9407 13.7252 43.8746 17.5542 50.8702L19.0483 49.9963C22.1161 48.1922 25.2403 48.1171 28.233 50.0386C30.8546 51.7112 33.2788 51.7112 35.9003 50.0386C38.9024 48.1594 42.0785 48.1124 45.0759 50.0386C47.7445 51.73 50.2109 51.7347 52.8513 50.0386C53.9821 49.2831 55.2849 48.8242 56.6396 48.7043C57.9943 48.5845 59.3573 48.8074 60.6032 49.3527C61.6161 49.8076 62.6027 50.319 63.5584 50.8843ZM62.3462 53.4072C59.2125 51.0581 56.4547 50.7245 53.1942 52.8293C50.4082 54.624 47.2746 54.4971 44.451 52.7072C41.7449 50.997 39.2831 51.0064 36.5628 52.7072C33.6547 54.5441 30.4553 54.5864 27.613 52.7072C24.6343 50.7151 21.5571 51.0158 18.6865 53.4683C18.9872 53.9381 19.33 54.4079 19.5931 54.9153C20.0206 55.7469 20.5327 55.8878 21.4723 55.6529C22.6364 55.3217 23.8589 55.2498 25.0538 55.4421C26.2486 55.6345 27.3869 56.0865 28.3881 56.7664C30.8264 58.4295 33.2366 58.3684 35.7173 56.8039C38.8603 54.826 42.0973 54.8072 45.2404 56.8039C47.7727 58.4013 50.2016 58.4483 52.6728 56.7475C53.6212 56.0925 54.7007 55.6516 55.8365 55.4553C56.9722 55.2589 58.137 55.312 59.2502 55.6106C60.4999 55.916 61.0825 55.6482 61.5993 54.671C61.8154 54.2341 62.069 53.8582 62.3462 53.4072ZM22.445 58.1805C31.7379 68.6668 49.5907 68.4459 58.5501 58.1805C57.847 57.9634 57.1034 57.9119 56.3772 58.0301C55.651 58.1483 54.9621 58.4329 54.3642 58.8617C50.7372 61.2907 47.2042 61.2578 43.5584 58.8899C42.6371 58.2607 41.5441 57.9308 40.4285 57.9451C39.3129 57.9594 38.2289 58.3172 37.324 58.9698C33.7581 61.3189 30.2768 61.2813 26.7532 58.904C26.1404 58.4574 25.4322 58.1595 24.6844 58.034C23.9367 57.9084 23.17 57.9586 22.445 58.1805Z" fill="#F05E28"/>
<path id="Vector_3" d="M40.3683 45.9559C34.2325 45.923 29.2995 40.3181 29.8633 34.0414C30.2861 29.3432 32.5318 25.5425 35.5011 22.0846C36.5476 20.9003 37.6629 19.7786 38.8414 18.7254C39.9032 17.7482 41.0307 17.7247 42.0925 18.6597C45.8886 22.0094 49.0082 25.8431 50.5257 30.7762C52.3204 36.5972 50.3237 42.1175 45.3578 44.678C43.8544 45.4579 42.1113 45.7679 40.4763 46.2941L40.3683 45.9559ZM40.5328 20.7785C37.6481 23.3813 35.3037 26.1673 33.7815 29.5499C32.7667 31.805 32.1699 34.14 32.7196 36.6723C33.6592 41.0745 37.5917 43.9686 41.6979 43.2075C43.8457 42.8093 45.7537 41.5892 47.0161 39.8065C48.2786 38.0238 48.7958 35.819 48.4584 33.6608C47.5704 28.3331 44.3759 24.4384 40.5328 20.7785Z" fill="#DC9C1A"/>
<path id="Vector_4" d="M40.1807 40.6799C38.8456 40.5988 37.5914 40.0128 36.6727 39.0408C35.7539 38.0688 35.2393 36.7837 35.2334 35.4462C35.2569 34.5676 35.7033 33.9945 36.4738 34.0884C36.7631 34.1713 37.0287 34.3213 37.2492 34.5262C37.4696 34.7311 37.6386 34.9851 37.7424 35.2677C38.2122 37.1469 38.6021 37.6167 40.4438 37.9832C41.2707 38.1476 41.8531 38.5705 41.7592 39.4913C41.6652 40.4121 41.0169 40.6987 40.1807 40.6799Z" fill="#DC9C1A"/>
</g>
<defs>
<clipPath id="clip0_427_736">
<rect width="80" height="80" fill="white" transform="translate(0.5 0.679932)"/>
</clipPath>
</defs>
</svg>
