<svg width="81" height="81" viewBox="0 0 81 81" fill="none" xmlns="http://www.w3.org/2000/svg">
<g id="Layer_1" clip-path="url(#clip0_427_1137)">
<path id="Vector" d="M40.5994 0.679816C62.6191 0.705155 80.5297 18.7129 80.5001 40.8002C80.4767 48.7111 78.1083 56.4374 73.6942 63.0023C69.28 69.5673 63.0182 74.6759 55.7008 77.6824C48.3835 80.689 40.339 81.4583 32.5844 79.8933C24.8298 78.3282 17.7134 74.499 12.1349 68.8898C6.55637 63.2806 2.76632 56.1433 1.24386 48.3803C-0.278608 40.6172 0.535023 32.577 3.58167 25.2762C6.62832 17.9755 11.7711 11.742 18.3602 7.36396C24.9492 2.98588 32.6885 0.659806 40.5994 0.679816ZM40.4515 3.3911C20.007 3.23062 3.18192 20.2079 3.16925 40.6566C3.15658 61.1053 20.0409 78.0319 40.5361 78.0023C61.0312 77.9728 77.8099 61.1095 77.8268 40.6862C77.8437 20.2628 60.9594 3.17994 40.4515 3.3911Z" fill="black"/>
<path id="Vector_2" d="M46.1318 57.769C46.4063 52.1564 46.6724 46.5395 46.9765 40.9227C47.0332 40.6044 46.9912 40.2764 46.856 39.9828C46.7209 39.6891 46.4991 39.4438 46.2205 39.2798C44.3538 38.0551 43.505 36.1843 43.2643 34.022C42.9011 30.6434 43.6866 27.3958 44.9535 24.3086C45.8953 22.0323 47.7705 20.8245 50.2115 20.7231C52.6525 20.6218 54.7048 21.6058 55.7606 23.8314C57.4837 27.4549 58.4509 31.3149 57.4204 35.3101C56.9956 36.7302 56.1858 38.0048 55.0807 38.9927C54.7054 39.2901 54.4142 39.6802 54.2357 40.1246C54.0572 40.569 53.9976 41.0522 54.0629 41.5266C54.4007 48.1401 54.6838 54.7537 54.9921 61.3756C55.05 62.0419 54.9448 62.7122 54.6859 63.3288C54.4269 63.9453 54.0218 64.4896 53.5055 64.9147C52.8481 65.5034 52.0304 65.8832 51.1566 66.0057C50.2827 66.1283 49.3921 65.9882 48.5981 65.6031C46.8455 64.8302 45.9544 63.3986 46.0009 61.4305C46.0304 60.2227 46.0009 59.0148 46.0009 57.8112L46.1318 57.769ZM48.7375 59.509H48.6996C48.6996 60.2142 48.6996 60.9237 48.6996 61.6206C48.7207 62.6257 49.3034 63.124 50.2494 63.2423C51.546 63.407 52.361 62.6637 52.3019 61.2531C52.2174 58.2969 52.0992 55.3407 51.9641 52.3844C51.7698 48.1021 51.56 43.8212 51.3347 39.5417C51.284 38.5957 51.567 37.9411 52.4538 37.5399C54.0291 36.8262 54.7724 35.5719 55.03 33.8573C55.4861 30.8461 54.6078 28.0884 53.5901 25.3687C53.0875 24.0299 51.9471 23.3458 50.4352 23.3711C48.9233 23.3964 47.7831 24.1228 47.3565 25.4827C46.6429 27.5571 46.1463 29.6999 45.8743 31.8766C45.6335 34.3176 46.1741 36.5939 48.8305 37.7637C49.2739 37.9622 49.6202 38.9378 49.599 39.5375C49.3794 46.2059 49.0416 52.8532 48.7375 59.509Z" fill="#DC9C1A"/>
<path id="Vector_3" d="M37.7865 28.0675C37.7865 29.8581 37.8583 31.653 37.7485 33.4394C37.7063 34.1067 37.4276 35.0231 36.9377 35.361C34.1546 37.2825 33.7323 39.9093 33.9815 43.0514C34.4376 48.5415 34.6487 54.0317 34.8894 59.5219C34.9992 60.8011 34.8717 62.0897 34.5135 63.3227C33.8167 65.3583 31.7305 66.317 29.5386 65.9285C28.5781 65.7113 27.7146 65.1868 27.079 64.4346C26.4434 63.6824 26.0704 62.7435 26.0166 61.7602C25.9828 60.8057 26.0629 59.847 26.1094 58.8884C26.4219 52.3171 26.7471 45.7458 27.0216 39.1745C27.0224 38.9353 26.9724 38.6986 26.8748 38.4802C26.7773 38.2618 26.6345 38.0666 26.4558 37.9075C23.5545 35.8635 22.7816 33.0931 23.149 29.6807C23.4024 27.2904 23.2124 24.8494 23.1913 22.4338C23.1913 21.4709 23.4658 20.7149 24.53 20.7445C25.5942 20.7741 25.7715 21.5131 25.7673 22.4338C25.7461 25.6392 25.801 28.8488 25.7334 32.0542C25.7334 33.0677 25.97 33.8279 26.7598 34.4318C26.954 34.5839 27.0892 34.8204 27.2961 34.9513C29.7244 36.5392 29.9568 38.8493 29.7203 41.493C29.3529 45.5979 29.2219 49.7198 29.0107 53.8374C28.8841 56.3334 28.7278 58.8293 28.7278 61.3252C28.749 61.6594 28.8413 61.9853 28.9986 62.281C29.1559 62.5767 29.3745 62.8354 29.6399 63.0398C29.9243 63.1736 30.2369 63.2366 30.5509 63.2233C30.865 63.2101 31.1711 63.1211 31.4432 62.9638C31.6917 62.7367 31.8909 62.4609 32.0282 62.1536C32.1655 61.8462 32.2381 61.514 32.2415 61.1774C32.0979 56.6839 31.8446 52.1946 31.6292 47.7011C31.4814 44.6266 31.3039 41.5479 31.2279 38.4692C31.2279 37.9202 31.6207 37.3543 31.8445 36.78C31.8862 36.7071 31.9459 36.646 32.0177 36.6026C34.9022 34.681 35.6284 31.9571 35.2525 28.6376C35.0287 26.6612 35.2273 24.6425 35.2061 22.6407C35.2061 21.6947 35.2822 20.7656 36.4731 20.7487C37.664 20.7318 37.8035 21.6187 37.7908 22.59C37.7655 24.3976 37.7865 26.2304 37.7865 28.0675Z" fill="#F05E28"/>
<path id="Vector_4" d="M64.4858 39.204C64.4056 35.2807 62.8302 30.3944 59.5277 26.1121C59.325 25.8503 59.1393 25.5715 58.9408 25.3055C58.4003 24.596 58.379 23.8907 59.1138 23.3459C59.9205 22.7462 60.5752 23.1178 61.1411 23.8189C63.2774 26.3787 64.8812 29.3393 65.8584 32.5271C68.7893 42.6079 66.7284 51.5315 59.5912 59.2853C59.0675 59.8512 58.5016 60.2144 57.7372 59.771C56.8925 59.2768 56.846 58.4829 57.5724 57.5538C58.7 56.1179 59.9417 54.7538 60.9215 53.225C63.316 49.4833 64.4901 45.0996 64.4858 39.204Z" fill="black"/>
<path id="Vector_5" d="M13.8497 40.8511C13.9173 34.9935 15.501 29.9595 18.6431 25.4237C19.1541 24.6847 19.7578 24.0512 20.6912 24.6805C21.6245 25.3097 21.3542 26.1712 20.8137 26.9568C17.7247 31.3934 16.225 36.7434 16.5577 42.1392C16.8904 47.535 19.0361 52.6603 22.6467 56.6838C22.8958 56.9668 23.166 57.2244 23.4068 57.5285C23.9516 58.1915 24.0698 58.9221 23.4068 59.5387C22.7437 60.1553 21.9836 60.0033 21.4515 59.3191C20.0409 57.5243 18.4952 55.7927 17.3423 53.85C15.0149 49.9164 13.8072 45.4215 13.8497 40.8511Z" fill="black"/>
<path id="Vector_6" d="M39.6916 13.793C42.348 14.1393 44.4934 14.3716 46.6219 14.7221C47.4412 14.8614 48.0578 15.5667 47.6777 16.3565C47.4581 16.8295 46.5501 17.3785 46.0856 17.2771C41.5136 16.2623 36.7482 16.5551 32.3348 18.1217C31.524 18.4047 30.6878 18.4005 30.3457 17.4376C30.0036 16.4747 30.6159 15.8159 31.5197 15.6047C34.3788 14.9121 37.2506 14.3251 39.6916 13.793Z" fill="black"/>
<path id="Vector_7" d="M27.2078 27.2479C27.2078 25.5882 27.2078 23.9285 27.2078 22.2688C27.2078 21.3524 27.5625 20.6767 28.555 20.7147C29.4587 20.7484 29.8219 21.3946 29.8219 22.2561C29.8219 25.66 29.8219 29.0625 29.8219 32.4636C29.8219 33.3083 29.4841 33.9206 28.5255 33.9333C27.5668 33.946 27.2288 33.3378 27.2288 32.4763C27.2035 30.7363 27.2078 28.9921 27.2078 27.2479Z" fill="#F05E28"/>
<path id="Vector_8" d="M33.7916 27.4253C33.7916 29.0893 33.7916 30.7504 33.7916 32.4087C33.7916 33.2534 33.5551 33.908 32.5669 33.9333C31.5786 33.9586 31.1943 33.3336 31.1943 32.4129C31.1943 29.0512 31.1943 25.6896 31.1943 22.328C31.1943 21.4242 31.5152 20.7231 32.4992 20.7147C33.4832 20.7062 33.8001 21.4242 33.7959 22.3237C33.7874 24.0257 33.7916 25.7276 33.7916 27.4253Z" fill="#F05E28"/>
<path id="Vector_9" d="M40.5105 67.3894C39.5603 67.3176 38.5677 67.2585 37.5753 67.1656C36.7687 67.0896 36.2578 66.6461 36.2578 65.8057C36.2578 64.9653 36.8617 64.5388 37.6473 64.5388C39.5533 64.505 41.4579 64.505 43.3612 64.5388C44.134 64.5388 44.7633 64.8597 44.7929 65.7593C44.8119 65.9366 44.7931 66.116 44.738 66.2857C44.6829 66.4554 44.5926 66.6115 44.473 66.7438C44.3534 66.8762 44.2074 66.9818 44.0441 67.0538C43.8809 67.1257 43.7043 67.1624 43.5259 67.1614C42.5208 67.2796 41.5283 67.3134 40.5105 67.3894Z" fill="black"/>
</g>
<defs>
<clipPath id="clip0_427_1137">
<rect width="80" height="80" fill="white" transform="translate(0.5 0.679932)"/>
</clipPath>
</defs>
</svg>
