<svg width="81" height="80" viewBox="0 0 81 80" fill="none" xmlns="http://www.w3.org/2000/svg">
<g id="Layer_1" clip-path="url(#clip0_427_205)">
<path id="Vector" d="M13.8124 72.9435C13.4314 74.4111 12.4703 74.7704 11.2149 74.7574C8.42684 74.7314 5.63433 74.7574 2.84197 74.7574C1.11028 74.7574 0.5 74.1167 0.5 72.4413C0.5 65.982 0.5 59.5257 0.5 53.0723C0.5 51.4271 1.10595 50.8037 2.73374 50.7951C5.48281 50.7951 8.232 50.834 10.9811 50.7951C12.3578 50.7648 13.4661 51.0159 13.8124 52.5787L18.713 51.7692C17.4705 50.4141 16.202 49.2236 15.163 47.8728C9.60423 40.5651 8.80342 32.6729 12.453 24.2915C12.7906 23.5209 13.2669 22.8066 14.2453 23.3131C15.2237 23.8196 14.8946 24.5599 14.5396 25.3479C10.9203 33.3483 12.4096 41.7989 18.5268 48.1456C19.1553 48.6945 19.7347 49.2971 20.2585 49.9466C21.1936 51.3449 22.4232 51.2757 23.8346 50.9899C26.4754 50.4531 29.1422 50.0288 31.8003 49.5699C35.2637 48.9768 38.675 49.4227 42.0691 50.163C43.4551 50.3995 44.8258 50.7189 46.1735 51.1198C46.9903 51.3847 47.7386 51.8267 48.3649 52.4142C48.9913 53.0016 49.4801 53.72 49.7969 54.5182C50.0985 55.2307 50.2195 56.0066 50.1491 56.7771C50.0786 57.5476 49.8191 58.2887 49.3933 58.9346C48.9675 59.5806 48.3887 60.1114 47.7084 60.4799C47.0281 60.8484 46.2673 61.0431 45.4936 61.0467C42.9697 61.0814 40.4459 60.683 37.9219 60.4709C37.3418 60.4233 36.766 60.3541 36.1902 60.2848C35.2508 60.1766 34.6445 60.5662 34.5016 61.5099C34.3588 62.4537 34.861 63.1118 35.8004 63.2979C37.9997 63.7308 40.2034 64.1335 42.4069 64.5361C43.5066 64.7395 44.6279 64.8651 45.7145 65.1248C47.8315 65.627 49.8316 65.008 51.8577 64.5751C52.0963 64.5184 52.3138 64.3953 52.4853 64.22C58.3471 58.1894 64.4817 52.3969 69.9712 46.0372C74.69 40.5737 75.1662 33.9414 72.9583 26.9886C68.8412 28.8978 64.7632 29.0753 60.7326 27.1878C56.7021 25.3002 54.1868 22.0576 52.94 17.4253C51.2559 18.4427 49.667 19.3518 48.1387 20.3562C47.4289 20.8716 46.7683 21.4513 46.1648 22.0879C43.3681 24.798 43.4287 24.7331 40.593 22.1399C39.0902 20.7086 37.413 19.4722 35.6013 18.46C31.0469 16.053 26.2805 15.4728 21.501 17.8539C20.2023 18.4903 19.1242 19.5034 17.9943 20.4125C17.3493 20.932 16.7563 21.3216 16.0593 20.5943C15.3623 19.867 15.7606 19.2955 16.3017 18.75C20.1374 14.9187 24.8042 13.5073 30.0988 14.2173C35.3935 14.9273 39.6839 17.5768 43.3161 21.5294C43.6798 21.2004 44.0175 20.919 44.3249 20.6073C46.441 18.4126 49.0018 16.6959 51.8359 15.5724C52.5156 15.3126 52.6586 14.9187 52.7711 14.2173C53.0525 12.4337 53.5158 10.676 53.9488 8.91836C54.1566 8.07848 54.7278 7.54167 55.6067 7.901C56.5808 8.29496 56.3859 9.0872 56.0396 9.89677C53.9659 14.9836 55.1479 20.1397 59.2823 23.5209C62.6375 26.2613 66.4688 26.9107 70.5383 25.4214C74.6944 23.8932 77.2529 20.8325 77.9456 16.4686C78.7335 11.4986 76.8763 7.50701 72.6423 4.84886C68.4083 2.19071 64.131 2.46782 59.9706 5.15627C59.7974 5.26883 59.6329 5.39869 59.4641 5.51558C58.8234 5.94851 58.2086 5.99182 57.7324 5.32512C57.6186 5.1975 57.5373 5.04432 57.4952 4.87861C57.4531 4.71291 57.4515 4.53953 57.4906 4.37308C57.5296 4.20663 57.6083 4.05202 57.7197 3.92235C57.8311 3.79267 57.972 3.69172 58.1307 3.62804C59.7628 2.76219 61.3733 1.65824 63.1353 1.19934C64.8868 0.725808 66.715 0.604962 68.5136 0.84384C70.3123 1.08272 72.0456 1.67656 73.6128 2.59086C75.18 3.50517 76.5498 4.72172 77.6429 6.16988C78.736 7.61804 79.5306 9.26892 79.9804 11.0267C81.3961 16.356 79.9241 20.9493 76.0234 24.7937C75.6987 25.1141 75.348 25.4041 74.98 25.7331C76.0295 28.4974 76.5481 31.435 76.5084 34.3916C76.3439 40.1625 74.3741 45.1887 70.3479 49.3491C66.0619 53.7779 61.7326 58.1635 57.425 62.5706C57.1125 62.8602 56.8773 63.2233 56.741 63.6269C57.9142 63.4148 59.0961 63.2287 60.2693 62.9906C61.936 62.6529 63.5855 62.2286 65.2566 61.9342C67.8195 61.5013 70.0752 62.3672 71.0493 64.1422C72.348 66.5232 71.0881 69.7225 68.1788 71.004C66.6784 71.6083 65.1467 72.1315 63.59 72.5712C57.4381 74.5583 51.2645 76.4675 45.1256 78.5239C40.7184 79.9872 36.4672 79.2945 32.1726 78.026C26.1203 76.2034 20.0162 74.6362 13.8124 72.9435ZM13.7084 70.4282C14.0115 70.5364 14.2019 70.623 14.4054 70.6793C21.0031 72.4716 27.6138 74.2206 34.1943 76.0692C37.0343 76.8701 39.8699 77.5022 42.7705 76.6103C49.3423 74.5842 55.9012 72.5019 62.4557 70.4065C64.2416 69.881 65.9926 69.2433 67.6983 68.4973C68.2641 68.2535 68.7197 67.8093 68.9779 67.2499C69.236 66.6906 69.2783 66.0555 69.0967 65.4669C68.7243 64.5014 67.5079 63.9386 66.1442 64.0988C66.023 64.0988 65.9016 64.1595 65.7804 64.1854C61.594 65.021 57.4163 65.9171 53.2256 66.6747C50.9528 67.0817 48.5935 67.6272 46.3379 67.4194C42.5498 67.0687 38.8007 66.2332 35.0819 65.4755C32.9476 65.0426 31.7786 62.9126 32.2721 60.774C32.7657 58.6353 34.6273 57.5531 36.7876 57.8691C39.4155 58.2501 42.0649 58.5444 44.71 58.7349C46.2123 58.8432 47.4504 57.999 47.7405 57.0032C48.1085 55.7824 47.4807 54.3147 46.0088 53.6047C44.9502 53.1443 43.8397 52.8143 42.7014 52.6221C38.8744 51.8168 35.0732 51.1804 31.1076 51.9597C25.5748 53.0506 19.9859 53.8515 14.4271 54.83C14.2478 54.9098 14.0913 55.0332 13.9718 55.189C13.8523 55.3448 13.7737 55.5279 13.7431 55.7218C13.7084 60.6051 13.7084 65.4755 13.7084 70.4282ZM2.88531 53.2281V72.2075H11.2624V53.2281H2.88531Z" fill="black"/>
<path id="Vector_2" d="M50.6845 41.8208C51.7192 40.0891 52.5417 38.5608 53.5461 37.1495C53.7563 36.8694 54.0205 36.6342 54.3232 36.458C54.6258 36.2818 54.9607 36.168 55.308 36.1235C58.2216 36.0153 61.1396 36.0802 64.0532 36.0715C64.8887 36.0715 65.6462 36.3097 65.6722 37.2361C65.6982 38.2362 64.9276 38.5349 64.0401 38.5349C61.4425 38.5349 58.8754 38.4959 56.2952 38.5695C56.0325 38.5978 55.7783 38.6801 55.5488 38.8112C55.3193 38.9423 55.1195 39.1194 54.9618 39.3315C53.8968 40.9636 52.9487 42.678 51.9313 44.3447C51.0655 45.7474 50.1433 45.7215 49.3338 44.2841C47.6887 41.3027 46.0494 38.317 44.4158 35.3269C44.1604 34.8594 43.8833 34.4091 43.55 33.7944C42.1559 36.2101 40.8355 38.5003 39.5194 40.7948C38.4414 42.6693 37.6881 42.6953 36.5538 40.8943C35.8222 39.7341 35.0993 38.5739 34.2594 37.2318C33.6996 38.2845 33.0675 39.2971 32.3675 40.2623C31.9178 40.8027 31.284 41.1574 30.5882 41.258C28.4712 41.3792 26.3454 41.3013 24.2197 41.31C23.3755 41.31 22.7003 41.1108 22.7176 40.0891C22.7349 39.0674 23.4276 39.0024 24.1982 39.0024C25.8649 39.0024 27.5317 38.9505 29.1941 39.0024C29.5768 39.0654 29.9695 38.9981 30.3094 38.8113C30.6493 38.6245 30.9168 38.3289 31.0687 37.9721C31.6575 36.8292 32.3675 35.7382 33.0516 34.6516C33.7356 33.565 34.6186 33.4913 35.3762 34.6169C36.242 35.9157 37.0256 37.2145 37.9737 38.7081C38.4067 37.9721 38.7877 37.3617 39.1427 36.7383C40.1991 34.9027 41.2337 33.0541 42.303 31.2228C43.1385 29.7942 44.0781 29.8071 44.8747 31.2531C46.7839 34.6948 48.6714 38.1539 50.6845 41.8208Z" fill="#F05E28"/>
<path id="Vector_3" d="M65.4515 15.7414C64.2913 15.7414 63.3388 15.7414 62.3864 15.7414C61.5206 15.7414 60.8105 15.4513 60.8018 14.5465C60.7932 13.6417 61.5682 13.356 62.3864 13.3473C63.3388 13.3473 64.2912 13.3473 65.4471 13.3473V10.7108C65.4471 9.84496 65.3475 8.79729 66.6376 8.81893C67.8195 8.84058 67.7676 9.79734 67.7546 10.6545C67.7416 11.5117 67.7546 12.3083 67.7546 13.356C68.798 13.356 69.7763 13.356 70.7504 13.356C71.5427 13.356 72.3437 13.5335 72.3523 14.5162C72.361 15.499 71.5861 15.763 70.7073 15.75C69.7635 15.75 68.8197 15.75 67.7504 15.75C67.7504 16.9276 67.7504 17.9536 67.7504 18.984C67.7504 19.7632 67.4604 20.2828 66.6118 20.2828C65.7633 20.2828 65.4514 19.7762 65.4471 18.984L65.4515 15.7414Z" fill="#DC9C1A"/>
</g>
<defs>
<clipPath id="clip0_427_205">
<rect width="80" height="78.6146" fill="white" transform="translate(0.5 0.679932)"/>
</clipPath>
</defs>
</svg>
