<svg width="127" height="30" viewBox="0 0 127 30" fill="none" xmlns="http://www.w3.org/2000/svg">
<g id="Logo" opacity="0.6">
<path d="M37.0633 8.92809H40.2286V21.6646H37.0633V8.92809ZM41.4842 16.8556C41.4842 13.7056 43.4256 11.8261 46.4222 11.8261C49.4187 11.8261 51.3601 13.7056 51.3601 16.8556C51.3601 20.0056 49.4609 21.8956 46.4222 21.8956C43.3834 21.8956 41.4842 20.0581 41.4842 16.8556ZM48.1842 16.8556C48.1842 15.1231 47.4984 14.1046 46.4222 14.1046C45.3459 14.1046 44.6707 15.1546 44.6707 16.8556C44.6707 18.5566 45.3354 19.5856 46.4222 19.5856C47.5089 19.5856 48.1842 18.6196 48.1842 16.8661V16.8556ZM52.5524 22.2841H55.5911C55.7357 22.6038 55.9802 22.8685 56.2882 23.0388C56.5962 23.2091 56.9512 23.2758 57.3004 23.2291C58.5032 23.2291 59.1363 22.5781 59.1363 21.6331V19.8691H59.073C58.8208 20.4097 58.4116 20.8627 57.8981 21.1697C57.3847 21.4766 56.7906 21.6234 56.1925 21.5911C53.8818 21.5911 52.3519 19.8376 52.3519 16.8241C52.3519 13.8106 53.808 11.9101 56.2347 11.9101C56.8515 11.886 57.461 12.0501 57.9815 12.3804C58.502 12.7107 58.9086 13.1914 59.1468 13.7581V12.0046H62.3122V21.5596C62.3122 23.8591 60.2758 25.2871 57.2687 25.2871C54.4727 25.2871 52.7317 24.0376 52.5524 22.2946V22.2841ZM59.1468 16.8451C59.1468 15.3121 58.4399 14.3461 57.3215 14.3461C56.2031 14.3461 55.5172 15.3016 55.5172 16.8451C55.5172 18.3886 56.1925 19.2601 57.3215 19.2601C58.4505 19.2601 59.1468 18.4096 59.1468 16.8556V16.8451ZM63.5045 16.8451C63.5045 13.6951 65.4459 11.8156 68.4424 11.8156C71.4389 11.8156 73.3909 13.6951 73.3909 16.8451C73.3909 19.9951 71.4917 21.8851 68.4424 21.8851C65.3931 21.8851 63.5045 20.0581 63.5045 16.8556V16.8451ZM70.2044 16.8451C70.2044 15.1126 69.5186 14.0941 68.4424 14.0941C67.3662 14.0941 66.7437 15.1546 66.7437 16.8661C66.7437 18.5776 67.4084 19.5961 68.4846 19.5961C69.5608 19.5961 70.2044 18.6196 70.2044 16.8661V16.8451ZM74.5937 9.71559C74.5854 9.39755 74.6722 9.08422 74.843 8.81532C75.0139 8.54643 75.2612 8.33407 75.5534 8.20517C75.8457 8.07627 76.1699 8.03664 76.4848 8.0913C76.7998 8.14595 77.0913 8.29244 77.3225 8.51218C77.5537 8.73192 77.7141 9.01503 77.7834 9.3256C77.8527 9.63618 77.8278 9.96025 77.7118 10.2567C77.5958 10.5532 77.394 10.8087 77.1319 10.9909C76.8699 11.1731 76.5593 11.2737 76.2397 11.2801C76.0278 11.2946 75.8152 11.2653 75.6152 11.1941C75.4152 11.1229 75.2322 11.0113 75.0777 10.8664C74.9231 10.7214 74.8003 10.5463 74.717 10.3518C74.6337 10.1574 74.5918 9.94794 74.5937 9.73659V9.71559ZM74.5937 12.0256H77.759V21.6646H74.5937V12.0256ZM89.2492 16.8451C89.2492 19.9951 87.8459 21.7906 85.4403 21.7906C84.8234 21.83 84.2093 21.6799 83.6809 21.3607C83.1525 21.0414 82.7354 20.5684 82.486 20.0056H82.4226V24.7516H79.2573V12.0046H82.4226V13.7266H82.486C82.7238 13.1545 83.133 12.6691 83.6578 12.3366C84.1826 12.0041 84.7976 11.8405 85.4192 11.8681C87.8459 11.9101 89.2914 13.7161 89.2914 16.8661L89.2492 16.8451ZM86.0839 16.8451C86.0839 15.3121 85.377 14.3356 84.2691 14.3356C83.1612 14.3356 82.4543 15.3226 82.4437 16.8451C82.4332 18.3676 83.1612 19.3441 84.2691 19.3441C85.377 19.3441 86.0839 18.3886 86.0839 16.8661V16.8451ZM94.6831 11.8051C97.3103 11.8051 98.9035 13.0441 98.9774 15.0286H96.0969C96.0969 14.3461 95.5272 13.9156 94.6514 13.9156C93.7757 13.9156 93.3853 14.2516 93.3853 14.7451C93.3853 15.2386 93.7335 15.3961 94.4404 15.5431L96.4662 15.9526C98.3971 16.3621 99.2201 17.1391 99.2201 18.5986C99.2201 20.5936 97.3947 21.8746 94.7042 21.8746C92.0136 21.8746 90.2516 20.5936 90.1144 18.6301H93.1637C93.2587 19.3441 93.8284 19.7641 94.7569 19.7641C95.6854 19.7641 96.1075 19.4596 96.1075 18.9556C96.1075 18.4516 95.812 18.3466 95.0524 18.1891L93.227 17.8006C91.3384 17.4121 90.3465 16.4146 90.3465 14.9446C90.3677 13.0546 92.0664 11.8261 94.6831 11.8261V11.8051ZM109.782 21.6436H106.732V19.8481H106.669C106.502 20.4509 106.132 20.9785 105.621 21.3434C105.111 21.7082 104.49 21.8882 103.863 21.8536C103.382 21.8808 102.9 21.805 102.452 21.6312C102.003 21.4575 101.596 21.1898 101.26 20.8464C100.924 20.503 100.666 20.0918 100.503 19.6406C100.341 19.1895 100.277 18.7088 100.317 18.2311V12.0046H103.483V17.5066C103.483 18.6511 104.074 19.2601 105.055 19.2601C105.285 19.2606 105.512 19.2121 105.722 19.1179C105.932 19.0237 106.119 18.886 106.271 18.7139C106.423 18.5419 106.536 18.3396 106.603 18.1205C106.67 17.9014 106.689 17.6706 106.659 17.4436V12.0046H109.824L109.782 21.6436ZM111.312 12.0046H114.371V13.8631H114.435C114.603 13.2682 114.964 12.7456 115.463 12.377C115.961 12.0084 116.568 11.8147 117.189 11.8261C117.82 11.7758 118.448 11.9639 118.946 12.353C119.445 12.7421 119.778 13.3037 119.879 13.9261H119.942C120.134 13.2971 120.53 12.7493 121.069 12.3691C121.608 11.9889 122.258 11.7979 122.918 11.8261C123.348 11.8117 123.777 11.8876 124.176 12.0488C124.575 12.2101 124.936 12.4531 125.234 12.7621C125.533 13.071 125.763 13.439 125.909 13.8422C126.055 14.2453 126.115 14.6746 126.083 15.1021V21.6646H122.918V15.9421C122.918 14.8921 122.443 14.4091 121.557 14.4091C121.359 14.4074 121.163 14.448 120.983 14.528C120.802 14.608 120.641 14.7256 120.51 14.8729C120.379 15.0202 120.281 15.1937 120.224 15.3818C120.166 15.5698 120.149 15.7681 120.175 15.9631V21.6646H117.168V15.9001C117.168 14.9341 116.693 14.4091 115.828 14.4091C115.628 14.4091 115.43 14.4514 115.248 14.533C115.066 14.6146 114.903 14.7338 114.77 14.8826C114.637 15.0315 114.538 15.2066 114.478 15.3965C114.419 15.5863 114.4 15.7866 114.424 15.9841V21.6646H111.259L111.312 12.0046Z" fill="#1D2130"/>
<path d="M28.2109 9.50564C27.674 8.28382 26.9633 7.14518 26.1007 6.12465C24.8255 4.571 23.2342 3.30371 21.4315 2.40618C19.6287 1.50866 17.6554 1.00124 15.6413 0.91734C13.6273 0.833437 11.6183 1.17494 9.74645 1.91939C7.87461 2.66383 6.18242 3.79433 4.78126 5.23648C3.38009 6.67863 2.30171 8.39973 1.6171 10.2865C0.932485 12.1733 0.657159 14.183 0.809245 16.1833C0.96133 18.1835 1.53738 20.1291 2.49947 21.8919C3.46157 23.6547 4.78789 25.1947 6.39116 26.4106C7.4199 27.2064 8.55662 27.8533 9.76753 28.3321C11.4652 29.0245 13.2822 29.3811 15.117 29.3821C18.9042 29.3738 22.5336 27.8715 25.2096 25.2045C27.8856 22.5376 29.3899 18.9235 29.3926 15.1546C29.3954 13.2106 28.993 11.2871 28.2109 9.50564ZM15.1064 3.80414C16.754 3.80397 18.3817 4.16234 19.8755 4.85414C19.5113 5.01077 19.1283 5.12017 18.736 5.17964C17.4452 5.36559 16.2494 5.96198 15.3271 6.87977C14.4048 7.79757 13.8055 8.98757 13.6187 10.2721C13.5367 10.9926 13.2074 11.6628 12.6865 12.1697C12.1656 12.6766 11.4849 12.9892 10.7593 13.0546C9.4685 13.2406 8.27271 13.837 7.35044 14.7548C6.42817 15.6726 5.82888 16.8626 5.64203 18.1471C5.57877 18.8322 5.28508 19.4759 4.80849 19.9741C3.98619 18.2451 3.61679 16.3371 3.73467 14.4277C3.85255 12.5184 4.45387 10.6698 5.48267 9.05388C6.51148 7.43798 7.93434 6.10734 9.61883 5.18578C11.3033 4.26423 13.1947 3.78172 15.117 3.78314L15.1064 3.80414ZM6.38061 22.5046C6.50722 22.3891 6.63384 22.2841 6.76045 22.1581C7.69914 21.2525 8.30167 20.0569 8.46974 18.7666C8.53788 18.0413 8.86329 17.3639 9.38768 16.8556C9.89229 16.3329 10.5715 16.0118 11.2974 15.9526C12.5883 15.7667 13.7841 15.1703 14.7063 14.2525C15.6286 13.3347 16.2279 12.1447 16.4147 10.8601C16.4604 10.1015 16.7875 9.38683 17.3327 8.85464C17.8498 8.34209 18.5354 8.0326 19.2636 7.98314C20.4494 7.82078 21.5554 7.29615 22.4289 6.48165C23.4235 7.30282 24.2662 8.29069 24.919 9.40064C24.8789 9.45456 24.8329 9.50387 24.7818 9.54764C24.2782 10.0749 23.5998 10.4031 22.872 10.4716C21.5799 10.6543 20.3823 11.2497 19.4594 12.1681C18.5366 13.0865 17.9383 14.2783 17.7547 15.5641C17.6804 16.287 17.3572 16.962 16.8399 17.4749C16.3227 17.9877 15.6431 18.3068 14.9165 18.3781C13.6219 18.5627 12.4216 19.1579 11.494 20.0753C10.5664 20.9927 9.96093 22.1835 9.76753 23.4706C9.71074 23.9838 9.53365 24.4765 9.25052 24.9091C8.16797 24.2695 7.19841 23.4572 6.38061 22.5046ZM15.1064 26.5576C14.0357 26.5588 12.9702 26.4104 11.9411 26.1166C12.2931 25.4635 12.522 24.7518 12.6163 24.0166C12.6903 23.2954 13.012 22.6216 13.5271 22.109C14.0422 21.5963 14.7193 21.2762 15.444 21.2026C16.7368 21.0188 17.935 20.4233 18.8593 19.5054C19.7836 18.5874 20.3845 17.3962 20.5719 16.1101C20.6458 15.3889 20.9675 14.7151 21.4827 14.2025C21.9978 13.6898 22.6748 13.3697 23.3996 13.2961C24.3724 13.1702 25.2997 12.8098 26.1007 12.2461C26.5455 13.9239 26.5982 15.6808 26.2547 17.3821C25.9113 19.0833 25.1808 20.6836 24.1193 22.0602C23.0579 23.4369 21.6936 24.5533 20.1313 25.3238C18.569 26.0943 16.8501 26.4984 15.1064 26.5051V26.5576Z" fill="#1D2130"/>
</g>
</svg>
